/* XPM */
static char *_f0b0657819e40eeea2a813cc03dac54oCTyCbtTJ90JGoCw[] = {
/* columns rows colors chars-per-pixel */
"32 32 6 1 ",
"  c gray32",
". c gray38",
"X c #6E6D6D",
"o c #888788",
"O c gray65",
"+ c gray71",
/* pixels */
"XX.XooOo.XooX.XoOooX..XoOO++Oooo",
"X.XooOOOo .XX.oO+OOOoX.XoOO+OOXo",
"..oO++Oooo . o+oO+OoOo .XXooOooo",
" XO+O+OoOoX o+O+OOoooo. . oXooXX",
".XOOOoOOoX XOOoOoOOOoX.  ..XX.X.",
".XoOoOoooX.XOoooXoOoXX .. ..X . ",
" .XoOooXX. XoXoXoooX...ooOoX .  ",
"....oXX...X.XoXXXXX..XooO+OoX.X ",
" ..X..Xo+oOX .o..X..oO+O++O+oX.X",
". . XXoOO+Oo....X. .O+O+OOoooX X",
"+oX.oO+O+O+Oo. ....oooOOoOOoX.Xo",
"O+oXXOO+OOOoOX.   .XoOoOOooX.XoO",
"Oooo.ooOOOoooXX. . .XooooX.X..O+",
"oOoo.XoXooOoXo.X.....XOo.XoX .oO",
"OooXX.XooXoXoXX.o+oOo..XXoo. oXo",
"ooX.XXXXooXXXX.oOO++Oo..XoX .X.o",
"XXXXo+ooXX.X.XoO++O+oOo..X.X .X.",
".X.o+++OoXo. .oOOoooOooX. ...  X",
"X.o+O+Ooo.XoX.XooOoooXX. .XooOo.",
"o.+O+OooXooX. ..ooXoX..X .ooOoOo",
"OXooOooXXXo.X. ..XoX..X .oOO+O+O",
"+oXoooXoXXX. .XX .X..X..oXO+O++O",
"oo.XXXXXX. .XoOoOo.X.. XOoO+++OO",
"ooX..X. .X.XXOO+O+o..  XoooOoOoo",
"o.XoOoOoX.XoO+OOoOOoX...XoXooooX",
"XXooO++OoX.oO++oOoOXoX.X XooXXoX",
".X+O+OooXo.oOOooXXXoXoX..X.XoX.X",
".oO+OooXooX.oooXXoXooXX  ...XoX.",
"oo+OooXXXX.X.X.XXXoX.X .X.X.  ..",
"XoOOoXoXoXX.  .X.ooXX..XOOoX..  ",
".XooXXXoX.oXX...XX.X.XooO+OOoX. ",
"..XXXXX.XoXooX . .  XXoO++OoOoX."
};
